# xmcd
#
# Track frame offsets: 
#        150
#        34133
#        63162
#        86467
#        108089
#        122985
#        139603
#        155502
#
# Disc length: 2404 seconds
#
# Revision: 0
# Processed by: cddbd v1.5.2PL0 Copyright (c) Steve Scherf et al.
# Submitted via: ExactAudioCopyFreeDBPlugin 1.0
#
DISCID=60096208
DTITLE=Atlantic Starr - Straight To The Point
DYEAR=1979
DGENRE=R&B 70's
TTITLE0=(Let's) Rock 'N' Roll
TTITLE1=Kissin' Power
TTITLE2=Let The Spirit Move Ya
TTITLE3=Straight To The Point
TTITLE4=Bullseye
TTITLE5=What'cha Feel Inside
TTITLE6=Fallin' In Love With You
TTITLE7=Losin' You
EXTD=
EXTT0=
EXTT1=
EXTT2=
EXTT3=
EXTT4=
EXTT5=
EXTT6=
EXTT7=
PLAYORDER=
